<?xml version="1.0" encoding="utf-8"?>
<!-- Generator: Adobe Illustrator 21.0.0, SVG Export Plug-In . SVG Version: 6.00 Build 0)  -->
<svg version="1.1" id="图层_1" xmlns="http://www.w3.org/2000/svg" xmlns:xlink="http://www.w3.org/1999/xlink" x="0px" y="0px"
	 viewBox="0 0 1417.3 1417.3" style="enable-background:new 0 0 1417.3 1417.3;" xml:space="preserve">
<style type="text/css">
	.st0{fill:none;stroke:#000000;stroke-width:60;stroke-miterlimit:10;}
	.st1{fill:#7D9999;stroke:#7D9999;stroke-miterlimit:10;}
	.st2{fill:none;stroke:#000000;stroke-width:400;stroke-miterlimit:10;}
	.st3{stroke:#000000;stroke-width:8;stroke-miterlimit:10;}
	.st4{fill:none;stroke:#000000;stroke-width:10;stroke-miterlimit:10;}
	.st5{fill:#FFFFFF;}
	.st6{fill:none;stroke:#FFFFFF;stroke-width:10;stroke-miterlimit:10;}
	.st7{fill:none;stroke:#7D9999;stroke-width:20;stroke-miterlimit:10;}
</style>
<path class="st0" d="M327.2,1306"/>
<path class="st0" d="M327.2,111.3"/>
<path class="st0" d="M1090.1,1306"/>
<path class="st0" d="M1090.1,111.3"/>
<path class="st0" d="M1090.1,1306"/>
<path class="st0" d="M327.2,111.3"/>
<circle class="st1" cx="708.7" cy="708.7" r="708.7"/>
<path class="st2" d="M-383.3,1491.9"/>
<path class="st2" d="M-509.3,1401.9"/>
<path class="st3" d="M708.7,1417.3"/>
<path class="st3" d="M0,0"/>
<path class="st4" d="M708.7,708.7"/>
<path class="st4" d="M0,0"/>
<g id="XMLID_1_">
	<g>
		<polygon class="st5" points="1417.3,716.7 716.7,716.7 716.7,1417.3 221.3,221.3 		"/>
	</g>
	<g>
		<line class="st6" x1="716.7" y1="716.7" x2="716.7" y2="1417.3"/>
		<line class="st6" x1="221.3" y1="221.3" x2="716.7" y2="1417.3"/>
		<line class="st6" x1="1417.3" y1="716.7" x2="221.3" y2="221.3"/>
		<line class="st6" x1="716.7" y1="716.7" x2="1417.3" y2="716.7"/>
	</g>
</g>
<path class="st4" d="M1063,708.7"/>
<path class="st4" d="M1090.1,1306"/>
<line class="st7" x1="207.6" y1="207.6" x2="744.8" y2="744.8"/>
</svg>
